<svg width="400" height="400" viewBox="0 0 400 400" fill="none" xmlns="http://www.w3.org/2000/svg">
<circle cx="200" cy="200" r="198.5" stroke="black" stroke-width="3"/>
<path d="M317.117 205.698C321.259 205.698 324.617 202.34 324.617 198.198C324.617 194.056 321.259 190.698 317.117 190.698V205.698ZM73.976 192.895C71.0471 195.824 71.0471 200.573 73.976 203.502L121.706 251.231C124.635 254.16 129.383 254.16 132.312 251.231C135.241 248.302 135.241 243.554 132.312 240.625L89.8859 198.198L132.312 155.772C135.241 152.843 135.241 148.094 132.312 145.165C129.383 142.236 124.635 142.236 121.706 145.165L73.976 192.895ZM317.117 190.698H79.2793V205.698H317.117V190.698Z" fill="black"/>
</svg>
